<?xml version="1.0" encoding="UTF-8"?> <svg xmlns="http://www.w3.org/2000/svg" xmlns:xlink="http://www.w3.org/1999/xlink" width="416px" height="225px" viewBox="0 0 416 225" version="1.1"><!-- Generator: Sketch 61.2 (89653) - https://sketch.com --><title>Group</title><desc>Created with Sketch.</desc><g id="Page-1" stroke="none" stroke-width="1" fill="none" fill-rule="evenodd"><g id="Manual-Logo-Iansa-v2.0" transform="translate(-98.000000, -80.000000)"><g id="Group" transform="translate(98.710000, 80.034200)"><path d="M282.5722,147.7539 C263.5872,147.7539 250.0522,156.2449 250.0522,170.7449 C250.0522,190.2949 273.1412,190.5089 286.4962,195.4879 C290.0512,196.8099 293.5282,198.6889 293.7942,201.5439 C294.2662,206.5779 286.6122,209.5089 280.9072,209.5089 C272.5412,209.5089 263.0132,206.3439 256.7012,202.2119 L246.8582,216.6339 C256.3712,221.6939 267.7702,224.6829 279.4092,224.6829 C303.8282,224.6829 316.1512,214.1809 316.1512,198.8879 C316.1512,186.8529 304.4262,181.2919 290.1842,177.9479 C283.9432,176.4819 279.3982,175.4439 276.4052,174.3199 C265.6912,170.2899 274.6682,162.8359 282.9892,162.8359 C288.8832,162.8359 297.5102,164.4439 302.3522,167.2839 L311.4272,153.4949 C303.1062,149.9719 291.8262,147.7539 282.5722,147.7539" id="Fill-1" fill="#064B8D"></path><path d="M369.4111,169.3095 L380.2771,196.1165 L358.1371,196.1165 L369.4111,169.3095 Z M352.4971,209.0065 L385.8321,209.0065 L391.6691,221.8465 L414.5821,221.8465 L385.4031,158.1285 C382.7061,151.9705 376.5331,147.6765 369.3861,147.6765 C362.4281,147.6765 356.4141,151.7405 353.5421,157.6165 L323.5091,221.8465 L346.3031,221.8465 L352.4971,209.0065 Z" id="Fill-3" fill="#064B8D"></path><polygon id="Fill-5" fill="#064B8D" points="-7.10542736e-15 221.8468 21.544 221.8468 21.544 149.7488 -7.10542736e-15 149.7488"></polygon><path d="M216.6796,223.0342 C224.5466,223.0342 231.2816,216.8712 231.2816,209.2042 L231.3116,149.7492 L209.5256,149.7492 L209.5256,196.3062 L168.7806,153.3502 C166.1096,150.4402 162.2656,148.6142 158.0056,148.6142 C149.9326,148.6142 143.3886,155.1562 143.3886,163.2312 L143.3836,221.8462 L165.1666,221.8462 L165.1666,175.1842 L205.6456,218.0302 C208.3226,221.0982 212.2826,223.0342 216.6796,223.0342" id="Fill-7" fill="#064B8D"></path><path d="M83.3935,169.3095 L94.2605,196.1165 L72.1215,196.1165 L83.3935,169.3095 Z M66.4815,209.0065 L99.8115,209.0065 L105.6545,221.8465 L128.5645,221.8465 L99.3835,158.1285 C96.6835,151.9705 90.5145,147.6765 83.3635,147.6765 C76.4055,147.6765 70.3955,151.7405 67.5215,157.6165 L37.4875,221.8465 L60.2825,221.8465 L66.4815,209.0065 Z" id="Fill-8" fill="#064B8D"></path><path d="M27.539,130.1592 C71.249,116.9012 135.71,106.0922 207.507,106.7182 C279.31,107.3472 343.578,116.1322 387.044,130.1592 C336.077,120.1362 274.212,114.3972 207.44,113.8112 C140.677,113.2272 78.677,121.0382 27.539,130.1592" id="Fill-9" fill="#F4B63C"></path><path d="M256.8007,100.4209 C279.7007,102.6499 299.2807,105.6279 320.6457,108.5199 C320.1137,96.2079 317.6217,84.4049 313.4737,73.4139 C306.0857,76.9029 265.9557,95.9479 256.8007,100.4209" id="Fill-10" fill="#F4B63C"></path><path d="M290.3505,36.1845 C285.6735,41.2665 251.5005,78.3965 247.0015,83.2495 C248.2355,84.8325 249.3805,86.4945 250.4135,88.2205 C256.7795,86.4255 305.2825,71.2735 311.8055,69.2345 C306.6045,56.9605 299.2985,45.7965 290.3505,36.1845" id="Fill-11" fill="#F4B63C"></path><path d="M232.3463,70.5931 C234.8103,71.9921 237.1533,73.5941 239.3283,75.3771 C244.2993,71.0551 282.4043,36.5531 286.8193,32.5551 C277.5853,23.4751 266.8023,15.9661 254.9033,10.4541 C253.2673,14.8001 235.1273,63.0061 232.3463,70.5931 Z" id="Fill-12" fill="#F4B63C"></path><path d="M211.4853,0.0776 C211.5443,1.8296 213.4353,57.2246 213.8043,64.5386 C216.4913,64.8496 219.1133,65.3776 221.6533,66.1026 C224.9163,59.4066 246.2113,15.7146 249.9113,8.2866 C237.9773,3.4446 225.0343,0.5746 211.4853,0.0776" id="Fill-13" fill="#F4B63C"></path><path d="M167.3671,7.207 C171.8251,17.004 191.3281,59.871 194.2071,66.172 C197.1691,65.307 200.2501,64.714 203.4141,64.418 C203.6741,57.676 206.0011,10.919 206.5441,0 C192.7641,0.084 179.5671,2.627 167.3671,7.207" id="Fill-14" fill="#F4B63C"></path><path d="M177.4375,74.8491 C179.8715,72.9201 182.4925,71.2121 185.2715,69.7661 C182.9035,63.3121 167.1715,19.8281 163.2035,8.8601 C150.9375,14.0301 139.7755,21.2991 130.1565,30.2091 C142.5045,41.8641 172.5345,70.2041 177.4375,74.8491" id="Fill-15" fill="#F4B63C"></path><path d="M103.9506,66.4223 C118.5946,71.8683 158.8746,86.8463 165.1746,89.1313 C166.5686,86.6793 168.1766,84.3593 169.9546,82.1903 C165.2426,76.9733 137.7936,46.7823 126.2096,34.0433 C117.0336,43.4033 109.4626,54.3443 103.9506,66.4223" id="Fill-16" fill="#F4B63C"></path><path d="M159.7415,99.5484 C152.1375,95.7144 116.6455,78.5754 101.8135,71.4224 C97.3645,82.5634 94.6305,94.5734 93.9365,107.1304 C113.0745,103.9774 136.7735,101.3684 159.7415,99.5484 Z" id="Fill-17" fill="#F4B63C"></path></g></g></g></svg> 